<?xml version="1.0" encoding="UTF-8" standalone="no"?>
<svg
   xmlns:dc="http://purl.org/dc/elements/1.1/"
   xmlns:cc="http://creativecommons.org/ns#"
   xmlns:rdf="http://www.w3.org/1999/02/22-rdf-syntax-ns#"
   xmlns:svg="http://www.w3.org/2000/svg"
   xmlns="http://www.w3.org/2000/svg"
   xmlns:xlink="http://www.w3.org/1999/xlink"
   xmlns:sodipodi="http://sodipodi.sourceforge.net/DTD/sodipodi-0.dtd"
   xmlns:inkscape="http://www.inkscape.org/namespaces/inkscape"
   width="800"
   height="600"
   viewBox="0 0 211.66666 158.75"
   version="1.1"
   id="svg8"
   inkscape:version="1.0 (4035a4fb49, 2020-05-01)"
   sodipodi:docname="logo.svg"
   inkscape:export-filename="D:\9. YandexDisc\1\7. Games\1. GDEVELOP5\4. ADOM CLONE\img\grid.png"
   inkscape:export-xdpi="96"
   inkscape:export-ydpi="96">
  <defs
     id="defs2">
    <pattern
       inkscape:collect="always"
       xlink:href="#pattern2778"
       id="pattern3759"
       patternTransform="translate(3e-5)" />
    <linearGradient
       inkscape:swatch="solid"
       id="linearGradient5610">
      <stop
         id="stop5608"
         offset="0"
         style="stop-color:#ffff00;stop-opacity:1;" />
    </linearGradient>
    <inkscape:path-effect
       effect="spiro"
       id="path-effect23082"
       is_visible="true"
       lpeversion="1" />
    <inkscape:path-effect
       effect="spiro"
       id="path-effect22978"
       is_visible="true"
       lpeversion="1" />
    <inkscape:path-effect
       effect="spiro"
       id="path-effect11313"
       is_visible="true" />
    <pattern
       patternUnits="userSpaceOnUse"
       width="63.999988"
       height="64.000026"
       patternTransform="translate(-704.81247,1659.9414)"
       id="pattern2778">
      <path
         inkscape:export-ydpi="96"
         inkscape:export-xdpi="96"
         inkscape:connector-curvature="0"
         id="path2776"
         d="M 0,0 V 4.0586079 H 0.81248505 V 2.4355654 0.81252285 H 2.4355276 4.0605355 V 0 Z m 59.94138,0 v 0.81252285 h 1.623043 1.625008 V 2.4355654 4.0586079 h 0.810557 V 0 Z M 0,59.941418 v 4.058608 H 4.3574174 V 63.187503 H 2.7343748 1.1093669 v -1.623004 -1.623081 z m 63.189431,0 v 1.623081 1.623004 H 61.564423 59.94138 v 0.812523 h 4.058608 v -4.058608 z"
         style="opacity:1;fill:#000000;fill-opacity:1;fill-rule:nonzero;stroke:none;stroke-width:1.5;stroke-linecap:butt;stroke-linejoin:miter;stroke-miterlimit:4;stroke-dasharray:none;stroke-opacity:1;paint-order:normal" />
    </pattern>
    <pattern
       patternUnits="userSpaceOnUse"
       width="63.999989"
       height="64.000023"
       patternTransform="translate(-704.8125,1659.9414)"
       id="pattern3756">
      <rect
         id="rect2781"
         y="2.2737368e-13"
         x="0"
         height="64.000023"
         width="63.999989"
         style="fill:url(#pattern3759);stroke:none" />
    </pattern>
    <pattern
       patternUnits="userSpaceOnUse"
       width="63.999988"
       height="64.000026"
       patternTransform="translate(-832,1600)"
       id="pattern3869">
      <path
         style="opacity:1;fill:#000000;fill-opacity:1;fill-rule:nonzero;stroke:none;stroke-width:1.5;stroke-linecap:butt;stroke-linejoin:miter;stroke-miterlimit:4;stroke-dasharray:none;stroke-opacity:1;paint-order:normal"
         d="M 0,0 V 4.0586079 H 0.81248505 V 2.4355654 0.81252285 H 2.4355276 4.0605355 V 0 Z m 59.94138,0 v 0.81252285 h 1.623043 1.625008 V 2.4355654 4.0586079 h 0.810557 V 0 Z M 0,59.941418 v 4.058608 H 4.3574174 V 63.187503 H 2.7343748 1.1093669 v -1.623042 -1.623043 z m 63.189431,0 v 1.623043 1.623042 H 61.564423 59.94138 v 0.812523 h 4.058608 v -4.058608 z"
         id="path3851"
         inkscape:connector-curvature="0"
         inkscape:export-xdpi="96"
         inkscape:export-ydpi="96" />
    </pattern>
    <pattern
       id="pattern4405"
       patternTransform="translate(-288,447.99999)"
       height="64.000026"
       width="64"
       patternUnits="userSpaceOnUse">
      <path
         style="opacity:1;fill:#ffffff;fill-opacity:1;fill-rule:nonzero;stroke:none;stroke-width:1.5;stroke-linecap:butt;stroke-linejoin:miter;stroke-miterlimit:4;stroke-dasharray:none;stroke-opacity:1;paint-order:normal"
         d="M 0,0 V 4.0586079 H 0.81250017 V 2.4355654 0.81252285 H 2.4355389 4.0605393 V 0 Z m 59.941399,0 v 0.81252285 h 1.62305 1.625001 V 2.4355654 4.0586079 H 64 V 0 Z M 0,59.941418 v 4.058608 H 4.3574174 V 63.187503 H 2.7343673 1.1093707 v -1.623042 -1.623043 z m 63.18945,0 v 1.623043 1.623042 h -1.625001 -1.62305 v 0.812523 H 64 v -4.058608 z"
         id="path4403"
         inkscape:connector-curvature="0"
         inkscape:export-xdpi="96"
         inkscape:export-ydpi="96" />
    </pattern>
  </defs>
  <sodipodi:namedview
     inkscape:lockguides="false"
     id="base"
     pagecolor="#ffffff"
     bordercolor="#666666"
     borderopacity="1.0"
     inkscape:pageopacity="0.0"
     inkscape:pageshadow="2"
     inkscape:zoom="0.45722321"
     inkscape:cx="324.18889"
     inkscape:cy="468.27975"
     inkscape:document-units="px"
     inkscape:current-layer="layer1"
     showgrid="true"
     units="px"
     inkscape:snap-page="false"
     inkscape:snap-bbox="true"
     inkscape:bbox-paths="false"
     inkscape:bbox-nodes="false"
     inkscape:window-width="1920"
     inkscape:window-height="1058"
     inkscape:window-x="-8"
     inkscape:window-y="-8"
     inkscape:window-maximized="1"
     inkscape:snap-grids="true"
     inkscape:snap-intersection-paths="true"
     inkscape:snap-global="false"
     inkscape:object-paths="false"
     showguides="true"
     inkscape:guide-bbox="true"
     inkscape:snap-to-guides="true"
     inkscape:snap-nodes="true"
     inkscape:snap-midpoints="false"
     inkscape:object-nodes="true"
     inkscape:snap-others="false"
     inkscape:snap-bbox-midpoints="true"
     inkscape:snap-bbox-edge-midpoints="true"
     inkscape:document-rotation="0"
     inkscape:pagecheckerboard="0">
    <inkscape:grid
       type="xygrid"
       id="grid11315"
       spacingx="8.4666665"
       spacingy="8.4666665" />
  </sodipodi:namedview>
  <metadata
     id="metadata5">
    <rdf:RDF>
      <cc:Work
         rdf:about="">
        <dc:format>image/svg+xml</dc:format>
        <dc:type
           rdf:resource="http://purl.org/dc/dcmitype/StillImage" />
      </cc:Work>
    </rdf:RDF>
  </metadata>
  <g
     inkscape:label="Layer 1"
     inkscape:groupmode="layer"
     id="layer1"
     transform="translate(0,-138.24998)">
    <rect
       inkscape:export-ydpi="96"
       inkscape:export-xdpi="96"
       inkscape:export-filename="D:\9. YandexDisc\1\15. itch.io\cover.png"
       y="341.79269"
       x="67.693451"
       height="132.29167"
       width="166.6875"
       id="rect912"
       style="fill:#000000;stroke-width:2.58118;stroke-linecap:square;paint-order:stroke markers fill" />
    <rect
       style="opacity:1;fill:#000000;stroke:none;stroke-width:1.32292;stroke-linecap:square;paint-order:stroke markers fill"
       id="rect3644"
       width="397.47311"
       height="209.26567"
       x="-96.444206"
       y="116.53967"
       inkscape:export-xdpi="96"
       inkscape:export-ydpi="96" />
    <g
       id="g3642"
       transform="matrix(1.010618,0,0,1.010618,501.8541,-202.68048)"
       inkscape:export-xdpi="96"
       inkscape:export-ydpi="96">
      <g
         style="fill:#ff0000"
         transform="translate(-1.0583333,-1.0583333)"
         id="g3605">
        <g
           style="fill:#ff0000;stroke-width:0.201107"
           transform="matrix(5.6869611,0,0,5.6869611,-660.1866,-1197.4031)"
           id="g3601"
           inkscape:export-xdpi="96"
           inkscape:export-ydpi="96">
          <g
             aria-label="["
             style="font-style:normal;font-weight:normal;font-size:16.9333px;line-height:125%;font-family:sans-serif;letter-spacing:0px;word-spacing:0px;fill:#ff0000;fill-opacity:1;stroke:none;stroke-width:0.0532095px;stroke-linecap:butt;stroke-linejoin:miter;stroke-opacity:1"
             id="g3595">
            <path
               d="m 45.603825,288.53332 h -3.270491 l -10e-7,-8.46668 h 3.270491 v 0.82286 h -1.808433 l 10e-7,6.83469 h 1.808433 z"
               style="fill:#ff0000;stroke-width:0.0532095px"
               id="path3593"
               inkscape:connector-curvature="0"
               sodipodi:nodetypes="ccccccccc" />
          </g>
          <g
             id="g3599"
             style="font-style:normal;font-weight:normal;font-size:16.9333px;line-height:125%;font-family:sans-serif;letter-spacing:0px;word-spacing:0px;fill:#ff0000;fill-opacity:1;stroke:none;stroke-width:0.0532095px;stroke-linecap:butt;stroke-linejoin:miter;stroke-opacity:1"
             aria-label="["
             transform="matrix(-1,0,0,1,93.133333,-9e-6)">
            <path
               sodipodi:nodetypes="ccccccccc"
               inkscape:connector-curvature="0"
               id="path3597"
               style="fill:#ff0000;stroke-width:0.0532095px"
               d="m 45.603825,288.53332 h -3.270491 l -10e-7,-8.46668 h 3.270491 v 0.82287 h -1.808433 l 10e-7,6.83469 h 1.808433 z" />
          </g>
        </g>
        <path
           sodipodi:nodetypes="ccccccccccccccccccccccccccccccccccccccccccccccccccccccccccccccccccccccccccccccccccccccccccccccccccccccccccccccccccccccccccccc"
           d="m -394.28722,429.12182 h 2.04789 v 2.04788 h -2.04789 -2.04791 -2.0479 -2.04791 -2.04789 v -2.04788 h 2.04789 2.04791 2.0479 z m 8.19161,0 h -2.04791 -2.0479 v -2.04794 h -2.04791 V 425.026 h -2.04789 v -2.04791 l 2.0639,-0.0319 v -6.07971 l -2.0639,-0.0319 v -2.04791 h -2.04791 v 2.04791 l -1.96791,0.0319 v 6.12771 l 1.96791,-0.0186 v 2.04791 h 2.04791 v 2.04788 h -2.04791 -2.0479 -2.04791 v -2.04788 h -2.04789 v -2.04791 -2.04789 -2.04791 -2.0479 -2.04791 h 2.04789 v -2.04793 h 2.04791 2.0479 2.04791 2.04789 2.04791 2.0479 v 2.04793 2.04791 2.0479 2.04791 2.04789 2.04791 2.04788 h 2.04791 v -2.04788 -2.04791 -2.04789 -2.04791 -2.0479 -2.04791 -2.04793 h 2.04788 v 2.04793 2.04791 2.0479 2.04791 2.04789 2.04791 2.04788 2.04791 z m -16.38322,0 h -2.0479 v -2.04794 h 2.0479 z m -2.0479,-2.04794 h -2.04791 v -2.04788 -2.04791 -2.04788 -2.04791 -2.04788 -2.04794 -2.04792 h 2.04791 v 2.04792 2.04794 2.04788 2.04791 2.04788 2.04791 z m 18.43112,-14.33532 h -2.04791 v -2.04787 h 2.04791 z m -18.43112,0 v -2.04787 h 2.0479 v 2.04787 z m 16.38321,-2.04787 h -2.0479 -2.04791 -2.04789 -2.04791 -2.0479 -2.04791 -2.04789 v -2.04791 h 2.04789 2.04791 2.0479 2.04791 2.04789 2.04791 2.0479 z"
           style="font-style:normal;font-variant:normal;font-weight:500;font-stretch:normal;font-size:11.2889px;line-height:125%;font-family:Newsgeek;-inkscape-font-specification:'Newsgeek, Medium';font-variant-ligatures:normal;font-variant-caps:normal;font-variant-numeric:normal;font-feature-settings:normal;text-align:start;letter-spacing:0px;word-spacing:0px;writing-mode:lr-tb;text-anchor:start;fill:#ff0000;fill-opacity:1;stroke:none;stroke-width:0.351983px;stroke-linecap:butt;stroke-linejoin:miter;stroke-opacity:1"
           id="path3603"
           inkscape:connector-curvature="0"
           inkscape:export-xdpi="96"
           inkscape:export-ydpi="96" />
      </g>
      <g
         transform="translate(1.0583333,1.0583333)"
         style="fill:#0000ff"
         id="g3619">
        <g
           style="fill:#0000ff;stroke-width:0.201107"
           transform="matrix(5.6869611,0,0,5.6869611,-660.1866,-1197.4031)"
           id="g3615"
           inkscape:export-xdpi="96"
           inkscape:export-ydpi="96">
          <g
             aria-label="["
             style="font-style:normal;font-weight:normal;font-size:16.9333px;line-height:125%;font-family:sans-serif;letter-spacing:0px;word-spacing:0px;fill:#0000ff;fill-opacity:1;stroke:none;stroke-width:0.0532095px;stroke-linecap:butt;stroke-linejoin:miter;stroke-opacity:1"
             id="g3609">
            <path
               d="m 45.603825,288.53332 h -3.270491 l -10e-7,-8.46668 h 3.270491 v 0.82286 h -1.808433 l 10e-7,6.83469 h 1.808433 z"
               style="fill:#0000ff;stroke-width:0.0532095px"
               id="path3607"
               inkscape:connector-curvature="0"
               sodipodi:nodetypes="ccccccccc" />
          </g>
          <g
             id="g3613"
             style="font-style:normal;font-weight:normal;font-size:16.9333px;line-height:125%;font-family:sans-serif;letter-spacing:0px;word-spacing:0px;fill:#0000ff;fill-opacity:1;stroke:none;stroke-width:0.0532095px;stroke-linecap:butt;stroke-linejoin:miter;stroke-opacity:1"
             aria-label="["
             transform="matrix(-1,0,0,1,93.133333,-9e-6)">
            <path
               sodipodi:nodetypes="ccccccccc"
               inkscape:connector-curvature="0"
               id="path3611"
               style="fill:#0000ff;stroke-width:0.0532095px"
               d="m 45.603825,288.53332 h -3.270491 l -10e-7,-8.46668 h 3.270491 v 0.82287 h -1.808433 l 10e-7,6.83469 h 1.808433 z" />
          </g>
        </g>
        <path
           sodipodi:nodetypes="ccccccccccccccccccccccccccccccccccccccccccccccccccccccccccccccccccccccccccccccccccccccccccccccccccccccccccccccccccccccccccccc"
           d="m -394.28722,429.12182 h 2.04789 v 2.04788 h -2.04789 -2.04791 -2.0479 -2.04791 -2.04789 v -2.04788 h 2.04789 2.04791 2.0479 z m 8.19161,0 h -2.04791 -2.0479 v -2.04794 h -2.04791 V 425.026 h -2.04789 v -2.04791 l 2.0639,-0.0319 v -6.07971 l -2.0639,-0.0319 v -2.04791 h -2.04791 v 2.04791 l -1.96791,0.0319 v 6.12771 l 1.96791,-0.0186 v 2.04791 h 2.04791 v 2.04788 h -2.04791 -2.0479 -2.04791 v -2.04788 h -2.04789 v -2.04791 -2.04789 -2.04791 -2.0479 -2.04791 h 2.04789 v -2.04793 h 2.04791 2.0479 2.04791 2.04789 2.04791 2.0479 v 2.04793 2.04791 2.0479 2.04791 2.04789 2.04791 2.04788 h 2.04791 v -2.04788 -2.04791 -2.04789 -2.04791 -2.0479 -2.04791 -2.04793 h 2.04788 v 2.04793 2.04791 2.0479 2.04791 2.04789 2.04791 2.04788 2.04791 z m -16.38322,0 h -2.0479 v -2.04794 h 2.0479 z m -2.0479,-2.04794 h -2.04791 v -2.04788 -2.04791 -2.04788 -2.04791 -2.04788 -2.04794 -2.04792 h 2.04791 v 2.04792 2.04794 2.04788 2.04791 2.04788 2.04791 z m 18.43112,-14.33532 h -2.04791 v -2.04787 h 2.04791 z m -18.43112,0 v -2.04787 h 2.0479 v 2.04787 z m 16.38321,-2.04787 h -2.0479 -2.04791 -2.04789 -2.04791 -2.0479 -2.04791 -2.04789 v -2.04791 h 2.04789 2.04791 2.0479 2.04791 2.04789 2.04791 2.0479 z"
           style="font-style:normal;font-variant:normal;font-weight:500;font-stretch:normal;font-size:11.2889px;line-height:125%;font-family:Newsgeek;-inkscape-font-specification:'Newsgeek, Medium';font-variant-ligatures:normal;font-variant-caps:normal;font-variant-numeric:normal;font-feature-settings:normal;text-align:start;letter-spacing:0px;word-spacing:0px;writing-mode:lr-tb;text-anchor:start;fill:#0000ff;fill-opacity:1;stroke:none;stroke-width:0.351983px;stroke-linecap:butt;stroke-linejoin:miter;stroke-opacity:1"
           id="path3617"
           inkscape:connector-curvature="0"
           inkscape:export-xdpi="96"
           inkscape:export-ydpi="96" />
      </g>
      <g
         id="g3591">
        <g
           inkscape:export-ydpi="96"
           inkscape:export-xdpi="96"
           id="g3581"
           transform="matrix(5.6869611,0,0,5.6869611,-660.1866,-1197.4031)"
           style="stroke-width:0.201107">
          <g
             id="g3575"
             style="font-style:normal;font-weight:normal;font-size:16.9333px;line-height:125%;font-family:sans-serif;letter-spacing:0px;word-spacing:0px;fill:#000000;fill-opacity:1;stroke:none;stroke-width:0.0532095px;stroke-linecap:butt;stroke-linejoin:miter;stroke-opacity:1"
             aria-label="[">
            <path
               sodipodi:nodetypes="ccccccccc"
               inkscape:connector-curvature="0"
               id="path3573"
               style="fill:#ffffff;stroke-width:0.0532095px"
               d="m 45.603825,288.53332 h -3.270491 l -10e-7,-8.46668 h 3.270491 v 0.82286 h -1.808433 l 10e-7,6.83469 h 1.808433 z" />
          </g>
          <g
             transform="matrix(-1,0,0,1,93.133333,-9e-6)"
             aria-label="["
             style="font-style:normal;font-weight:normal;font-size:16.9333px;line-height:125%;font-family:sans-serif;letter-spacing:0px;word-spacing:0px;fill:#000000;fill-opacity:1;stroke:none;stroke-width:0.0532095px;stroke-linecap:butt;stroke-linejoin:miter;stroke-opacity:1"
             id="g3579">
            <path
               d="m 45.603825,288.53332 h -3.270491 l -10e-7,-8.46668 h 3.270491 v 0.82287 h -1.808433 l 10e-7,6.83469 h 1.808433 z"
               style="fill:#ffffff;stroke-width:0.0532095px"
               id="path3577"
               inkscape:connector-curvature="0"
               sodipodi:nodetypes="ccccccccc" />
          </g>
        </g>
        <path
           inkscape:export-ydpi="96"
           inkscape:export-xdpi="96"
           inkscape:connector-curvature="0"
           id="path3583"
           style="font-style:normal;font-variant:normal;font-weight:500;font-stretch:normal;font-size:11.2889px;line-height:125%;font-family:Newsgeek;-inkscape-font-specification:'Newsgeek, Medium';font-variant-ligatures:normal;font-variant-caps:normal;font-variant-numeric:normal;font-feature-settings:normal;text-align:start;letter-spacing:0px;word-spacing:0px;writing-mode:lr-tb;text-anchor:start;fill:#ffffff;fill-opacity:1;stroke:none;stroke-width:0.351983px;stroke-linecap:butt;stroke-linejoin:miter;stroke-opacity:1"
           d="m -394.28722,429.12182 h 2.04789 v 2.04788 h -2.04789 -2.04791 -2.0479 -2.04791 -2.04789 v -2.04788 h 2.04789 2.04791 2.0479 z m 8.19161,0 h -2.04791 -2.0479 v -2.04794 h -2.04791 V 425.026 h -2.04789 v -2.04791 l 2.0639,-0.0319 v -6.07971 l -2.0639,-0.0319 v -2.04791 h -2.04791 v 2.04791 l -1.96791,0.0319 v 6.12771 l 1.96791,-0.0186 v 2.04791 h 2.04791 v 2.04788 h -2.04791 -2.0479 -2.04791 v -2.04788 h -2.04789 v -2.04791 -2.04789 -2.04791 -2.0479 -2.04791 h 2.04789 v -2.04793 h 2.04791 2.0479 2.04791 2.04789 2.04791 2.0479 v 2.04793 2.04791 2.0479 2.04791 2.04789 2.04791 2.04788 h 2.04791 v -2.04788 -2.04791 -2.04789 -2.04791 -2.0479 -2.04791 -2.04793 h 2.04788 v 2.04793 2.04791 2.0479 2.04791 2.04789 2.04791 2.04788 2.04791 z m -16.38322,0 h -2.0479 v -2.04794 h 2.0479 z m -2.0479,-2.04794 h -2.04791 v -2.04788 -2.04791 -2.04788 -2.04791 -2.04788 -2.04794 -2.04792 h 2.04791 v 2.04792 2.04794 2.04788 2.04791 2.04788 2.04791 z m 18.43112,-14.33532 h -2.04791 v -2.04787 h 2.04791 z m -18.43112,0 v -2.04787 h 2.0479 v 2.04787 z m 16.38321,-2.04787 h -2.0479 -2.04791 -2.04789 -2.04791 -2.0479 -2.04791 -2.04789 v -2.04791 h 2.04789 2.04791 2.0479 2.04791 2.04789 2.04791 2.0479 z"
           sodipodi:nodetypes="ccccccccccccccccccccccccccccccccccccccccccccccccccccccccccccccccccccccccccccccccccccccccccccccccccccccccccccccccccccccccccccc" />
      </g>
    </g>
    <g
       inkscape:export-ydpi="96"
       inkscape:export-xdpi="96"
       transform="matrix(1.7243713,0,0,1.7243713,832.79115,-315.26245)"
       id="g910">
      <g
         id="g880"
         transform="translate(-1.0583333,-1.0583333)"
         style="fill:#ff0000">
        <g
           inkscape:export-ydpi="96"
           inkscape:export-xdpi="96"
           id="g876"
           transform="matrix(5.6869611,0,0,5.6869611,-660.1866,-1197.4031)"
           style="fill:#ff0000;stroke-width:0.201107">
          <g
             id="g870"
             style="font-style:normal;font-weight:normal;font-size:16.9333px;line-height:125%;font-family:sans-serif;letter-spacing:0px;word-spacing:0px;fill:#ff0000;fill-opacity:1;stroke:none;stroke-width:0.0532095px;stroke-linecap:butt;stroke-linejoin:miter;stroke-opacity:1"
             aria-label="[">
            <path
               sodipodi:nodetypes="ccccccccc"
               inkscape:connector-curvature="0"
               id="path868"
               style="fill:#ff0000;stroke-width:0.0532095px"
               d="m 45.603825,288.53332 h -3.270491 l -10e-7,-8.46668 h 3.270491 v 0.82286 h -1.808433 l 10e-7,6.83469 h 1.808433 z" />
          </g>
          <g
             transform="matrix(-1,0,0,1,93.133333,-9e-6)"
             aria-label="["
             style="font-style:normal;font-weight:normal;font-size:16.9333px;line-height:125%;font-family:sans-serif;letter-spacing:0px;word-spacing:0px;fill:#ff0000;fill-opacity:1;stroke:none;stroke-width:0.0532095px;stroke-linecap:butt;stroke-linejoin:miter;stroke-opacity:1"
             id="g874">
            <path
               d="m 45.603825,288.53332 h -3.270491 l -10e-7,-8.46668 h 3.270491 v 0.82287 h -1.808433 l 10e-7,6.83469 h 1.808433 z"
               style="fill:#ff0000;stroke-width:0.0532095px"
               id="path872"
               inkscape:connector-curvature="0"
               sodipodi:nodetypes="ccccccccc" />
          </g>
        </g>
        <path
           inkscape:export-ydpi="96"
           inkscape:export-xdpi="96"
           inkscape:connector-curvature="0"
           id="path878"
           style="font-style:normal;font-variant:normal;font-weight:500;font-stretch:normal;font-size:11.2889px;line-height:125%;font-family:Newsgeek;-inkscape-font-specification:'Newsgeek, Medium';font-variant-ligatures:normal;font-variant-caps:normal;font-variant-numeric:normal;font-feature-settings:normal;text-align:start;letter-spacing:0px;word-spacing:0px;writing-mode:lr-tb;text-anchor:start;fill:#ff0000;fill-opacity:1;stroke:none;stroke-width:0.351983px;stroke-linecap:butt;stroke-linejoin:miter;stroke-opacity:1"
           d="m -394.28722,429.12182 h 2.04789 v 2.04788 h -2.04789 -2.04791 -2.0479 -2.04791 -2.04789 v -2.04788 h 2.04789 2.04791 2.0479 z m 8.19161,0 h -2.04791 -2.0479 v -2.04794 h -2.04791 V 425.026 h -2.04789 v -2.04791 l 2.0639,-0.0319 v -6.07971 l -2.0639,-0.0319 v -2.04791 h -2.04791 v 2.04791 l -1.96791,0.0319 v 6.12771 l 1.96791,-0.0186 v 2.04791 h 2.04791 v 2.04788 h -2.04791 -2.0479 -2.04791 v -2.04788 h -2.04789 v -2.04791 -2.04789 -2.04791 -2.0479 -2.04791 h 2.04789 v -2.04793 h 2.04791 2.0479 2.04791 2.04789 2.04791 2.0479 v 2.04793 2.04791 2.0479 2.04791 2.04789 2.04791 2.04788 h 2.04791 v -2.04788 -2.04791 -2.04789 -2.04791 -2.0479 -2.04791 -2.04793 h 2.04788 v 2.04793 2.04791 2.0479 2.04791 2.04789 2.04791 2.04788 2.04791 z m -16.38322,0 h -2.0479 v -2.04794 h 2.0479 z m -2.0479,-2.04794 h -2.04791 v -2.04788 -2.04791 -2.04788 -2.04791 -2.04788 -2.04794 -2.04792 h 2.04791 v 2.04792 2.04794 2.04788 2.04791 2.04788 2.04791 z m 18.43112,-14.33532 h -2.04791 v -2.04787 h 2.04791 z m -18.43112,0 v -2.04787 h 2.0479 v 2.04787 z m 16.38321,-2.04787 h -2.0479 -2.04791 -2.04789 -2.04791 -2.0479 -2.04791 -2.04789 v -2.04791 h 2.04789 2.04791 2.0479 2.04791 2.04789 2.04791 2.0479 z"
           sodipodi:nodetypes="ccccccccccccccccccccccccccccccccccccccccccccccccccccccccccccccccccccccccccccccccccccccccccccccccccccccccccccccccccccccccccccc" />
      </g>
      <g
         id="g894"
         style="fill:#0000ff"
         transform="translate(1.0583333,1.0583333)">
        <g
           inkscape:export-ydpi="96"
           inkscape:export-xdpi="96"
           id="g890"
           transform="matrix(5.6869611,0,0,5.6869611,-660.1866,-1197.4031)"
           style="fill:#0000ff;stroke-width:0.201107">
          <g
             id="g884"
             style="font-style:normal;font-weight:normal;font-size:16.9333px;line-height:125%;font-family:sans-serif;letter-spacing:0px;word-spacing:0px;fill:#0000ff;fill-opacity:1;stroke:none;stroke-width:0.0532095px;stroke-linecap:butt;stroke-linejoin:miter;stroke-opacity:1"
             aria-label="[">
            <path
               sodipodi:nodetypes="ccccccccc"
               inkscape:connector-curvature="0"
               id="path882"
               style="fill:#0000ff;stroke-width:0.0532095px"
               d="m 45.603825,288.53332 h -3.270491 l -10e-7,-8.46668 h 3.270491 v 0.82286 h -1.808433 l 10e-7,6.83469 h 1.808433 z" />
          </g>
          <g
             transform="matrix(-1,0,0,1,93.133333,-9e-6)"
             aria-label="["
             style="font-style:normal;font-weight:normal;font-size:16.9333px;line-height:125%;font-family:sans-serif;letter-spacing:0px;word-spacing:0px;fill:#0000ff;fill-opacity:1;stroke:none;stroke-width:0.0532095px;stroke-linecap:butt;stroke-linejoin:miter;stroke-opacity:1"
             id="g888">
            <path
               d="m 45.603825,288.53332 h -3.270491 l -10e-7,-8.46668 h 3.270491 v 0.82287 h -1.808433 l 10e-7,6.83469 h 1.808433 z"
               style="fill:#0000ff;stroke-width:0.0532095px"
               id="path886"
               inkscape:connector-curvature="0"
               sodipodi:nodetypes="ccccccccc" />
          </g>
        </g>
        <path
           inkscape:export-ydpi="96"
           inkscape:export-xdpi="96"
           inkscape:connector-curvature="0"
           id="path892"
           style="font-style:normal;font-variant:normal;font-weight:500;font-stretch:normal;font-size:11.2889px;line-height:125%;font-family:Newsgeek;-inkscape-font-specification:'Newsgeek, Medium';font-variant-ligatures:normal;font-variant-caps:normal;font-variant-numeric:normal;font-feature-settings:normal;text-align:start;letter-spacing:0px;word-spacing:0px;writing-mode:lr-tb;text-anchor:start;fill:#0000ff;fill-opacity:1;stroke:none;stroke-width:0.351983px;stroke-linecap:butt;stroke-linejoin:miter;stroke-opacity:1"
           d="m -394.28722,429.12182 h 2.04789 v 2.04788 h -2.04789 -2.04791 -2.0479 -2.04791 -2.04789 v -2.04788 h 2.04789 2.04791 2.0479 z m 8.19161,0 h -2.04791 -2.0479 v -2.04794 h -2.04791 V 425.026 h -2.04789 v -2.04791 l 2.0639,-0.0319 v -6.07971 l -2.0639,-0.0319 v -2.04791 h -2.04791 v 2.04791 l -1.96791,0.0319 v 6.12771 l 1.96791,-0.0186 v 2.04791 h 2.04791 v 2.04788 h -2.04791 -2.0479 -2.04791 v -2.04788 h -2.04789 v -2.04791 -2.04789 -2.04791 -2.0479 -2.04791 h 2.04789 v -2.04793 h 2.04791 2.0479 2.04791 2.04789 2.04791 2.0479 v 2.04793 2.04791 2.0479 2.04791 2.04789 2.04791 2.04788 h 2.04791 v -2.04788 -2.04791 -2.04789 -2.04791 -2.0479 -2.04791 -2.04793 h 2.04788 v 2.04793 2.04791 2.0479 2.04791 2.04789 2.04791 2.04788 2.04791 z m -16.38322,0 h -2.0479 v -2.04794 h 2.0479 z m -2.0479,-2.04794 h -2.04791 v -2.04788 -2.04791 -2.04788 -2.04791 -2.04788 -2.04794 -2.04792 h 2.04791 v 2.04792 2.04794 2.04788 2.04791 2.04788 2.04791 z m 18.43112,-14.33532 h -2.04791 v -2.04787 h 2.04791 z m -18.43112,0 v -2.04787 h 2.0479 v 2.04787 z m 16.38321,-2.04787 h -2.0479 -2.04791 -2.04789 -2.04791 -2.0479 -2.04791 -2.04789 v -2.04791 h 2.04789 2.04791 2.0479 2.04791 2.04789 2.04791 2.0479 z"
           sodipodi:nodetypes="ccccccccccccccccccccccccccccccccccccccccccccccccccccccccccccccccccccccccccccccccccccccccccccccccccccccccccccccccccccccccccccc" />
      </g>
      <g
         id="g908">
        <g
           style="stroke-width:0.201107"
           transform="matrix(5.6869611,0,0,5.6869611,-660.1866,-1197.4031)"
           id="g904"
           inkscape:export-xdpi="96"
           inkscape:export-ydpi="96">
          <g
             aria-label="["
             style="font-style:normal;font-weight:normal;font-size:16.9333px;line-height:125%;font-family:sans-serif;letter-spacing:0px;word-spacing:0px;fill:#000000;fill-opacity:1;stroke:none;stroke-width:0.0532095px;stroke-linecap:butt;stroke-linejoin:miter;stroke-opacity:1"
             id="g898">
            <path
               d="m 45.603825,288.53332 h -3.270491 l -10e-7,-8.46668 h 3.270491 v 0.82286 h -1.808433 l 10e-7,6.83469 h 1.808433 z"
               style="fill:#ffffff;stroke-width:0.0532095px"
               id="path896"
               inkscape:connector-curvature="0"
               sodipodi:nodetypes="ccccccccc" />
          </g>
          <g
             id="g902"
             style="font-style:normal;font-weight:normal;font-size:16.9333px;line-height:125%;font-family:sans-serif;letter-spacing:0px;word-spacing:0px;fill:#000000;fill-opacity:1;stroke:none;stroke-width:0.0532095px;stroke-linecap:butt;stroke-linejoin:miter;stroke-opacity:1"
             aria-label="["
             transform="matrix(-1,0,0,1,93.133333,-9e-6)">
            <path
               sodipodi:nodetypes="ccccccccc"
               inkscape:connector-curvature="0"
               id="path900"
               style="fill:#ffffff;stroke-width:0.0532095px"
               d="m 45.603825,288.53332 h -3.270491 l -10e-7,-8.46668 h 3.270491 v 0.82287 h -1.808433 l 10e-7,6.83469 h 1.808433 z" />
          </g>
        </g>
        <path
           sodipodi:nodetypes="ccccccccccccccccccccccccccccccccccccccccccccccccccccccccccccccccccccccccccccccccccccccccccccccccccccccccccccccccccccccccccccc"
           d="m -394.28722,429.12182 h 2.04789 v 2.04788 h -2.04789 -2.04791 -2.0479 -2.04791 -2.04789 v -2.04788 h 2.04789 2.04791 2.0479 z m 8.19161,0 h -2.04791 -2.0479 v -2.04794 h -2.04791 V 425.026 h -2.04789 v -2.04791 l 2.0639,-0.0319 v -6.07971 l -2.0639,-0.0319 v -2.04791 h -2.04791 v 2.04791 l -1.96791,0.0319 v 6.12771 l 1.96791,-0.0186 v 2.04791 h 2.04791 v 2.04788 h -2.04791 -2.0479 -2.04791 v -2.04788 h -2.04789 v -2.04791 -2.04789 -2.04791 -2.0479 -2.04791 h 2.04789 v -2.04793 h 2.04791 2.0479 2.04791 2.04789 2.04791 2.0479 v 2.04793 2.04791 2.0479 2.04791 2.04789 2.04791 2.04788 h 2.04791 v -2.04788 -2.04791 -2.04789 -2.04791 -2.0479 -2.04791 -2.04793 h 2.04788 v 2.04793 2.04791 2.0479 2.04791 2.04789 2.04791 2.04788 2.04791 z m -16.38322,0 h -2.0479 v -2.04794 h 2.0479 z m -2.0479,-2.04794 h -2.04791 v -2.04788 -2.04791 -2.04788 -2.04791 -2.04788 -2.04794 -2.04792 h 2.04791 v 2.04792 2.04794 2.04788 2.04791 2.04788 2.04791 z m 18.43112,-14.33532 h -2.04791 v -2.04787 h 2.04791 z m -18.43112,0 v -2.04787 h 2.0479 v 2.04787 z m 16.38321,-2.04787 h -2.0479 -2.04791 -2.04789 -2.04791 -2.0479 -2.04791 -2.04789 v -2.04791 h 2.04789 2.04791 2.0479 2.04791 2.04789 2.04791 2.0479 z"
           style="font-style:normal;font-variant:normal;font-weight:500;font-stretch:normal;font-size:11.2889px;line-height:125%;font-family:Newsgeek;-inkscape-font-specification:'Newsgeek, Medium';font-variant-ligatures:normal;font-variant-caps:normal;font-variant-numeric:normal;font-feature-settings:normal;text-align:start;letter-spacing:0px;word-spacing:0px;writing-mode:lr-tb;text-anchor:start;fill:#ffffff;fill-opacity:1;stroke:none;stroke-width:0.351983px;stroke-linecap:butt;stroke-linejoin:miter;stroke-opacity:1"
           id="path906"
           inkscape:connector-curvature="0"
           inkscape:export-xdpi="96"
           inkscape:export-ydpi="96" />
      </g>
    </g>
  </g>
</svg>
